<svg id="visual" viewBox="0 0 900 600" width="900" height="600" xmlns="http://www.w3.org/2000/svg" xmlns:xlink="http://www.w3.org/1999/xlink" version="1.1"><rect x="0" y="0" width="900" height="600" fill="#4FACF7"></rect><defs><linearGradient id="grad1_0" x1="33.3%" y1="0%" x2="100%" y2="100%"><stop offset="20%" stop-color="#ffffff" stop-opacity="1"></stop><stop offset="80%" stop-color="#ffffff" stop-opacity="1"></stop></linearGradient></defs><defs><linearGradient id="grad1_1" x1="33.3%" y1="0%" x2="100%" y2="100%"><stop offset="20%" stop-color="#ffffff" stop-opacity="1"></stop><stop offset="80%" stop-color="#eaf3fe" stop-opacity="1"></stop></linearGradient></defs><defs><linearGradient id="grad1_2" x1="33.3%" y1="0%" x2="100%" y2="100%"><stop offset="20%" stop-color="#d5e6fd" stop-opacity="1"></stop><stop offset="80%" stop-color="#eaf3fe" stop-opacity="1"></stop></linearGradient></defs><defs><linearGradient id="grad1_3" x1="33.3%" y1="0%" x2="100%" y2="100%"><stop offset="20%" stop-color="#d5e6fd" stop-opacity="1"></stop><stop offset="80%" stop-color="#bfdafc" stop-opacity="1"></stop></linearGradient></defs><defs><linearGradient id="grad1_4" x1="33.3%" y1="0%" x2="100%" y2="100%"><stop offset="20%" stop-color="#a8cffb" stop-opacity="1"></stop><stop offset="80%" stop-color="#bfdafc" stop-opacity="1"></stop></linearGradient></defs><defs><linearGradient id="grad1_5" x1="33.3%" y1="0%" x2="100%" y2="100%"><stop offset="20%" stop-color="#a8cffb" stop-opacity="1"></stop><stop offset="80%" stop-color="#8fc3fa" stop-opacity="1"></stop></linearGradient></defs><defs><linearGradient id="grad1_6" x1="33.3%" y1="0%" x2="100%" y2="100%"><stop offset="20%" stop-color="#73b7f8" stop-opacity="1"></stop><stop offset="80%" stop-color="#8fc3fa" stop-opacity="1"></stop></linearGradient></defs><defs><linearGradient id="grad1_7" x1="33.3%" y1="0%" x2="100%" y2="100%"><stop offset="20%" stop-color="#73b7f8" stop-opacity="1"></stop><stop offset="80%" stop-color="#4facf7" stop-opacity="1"></stop></linearGradient></defs><defs><linearGradient id="grad2_0" x1="0%" y1="0%" x2="66.7%" y2="100%"><stop offset="20%" stop-color="#ffffff" stop-opacity="1"></stop><stop offset="80%" stop-color="#ffffff" stop-opacity="1"></stop></linearGradient></defs><defs><linearGradient id="grad2_1" x1="0%" y1="0%" x2="66.7%" y2="100%"><stop offset="20%" stop-color="#eaf3fe" stop-opacity="1"></stop><stop offset="80%" stop-color="#ffffff" stop-opacity="1"></stop></linearGradient></defs><defs><linearGradient id="grad2_2" x1="0%" y1="0%" x2="66.7%" y2="100%"><stop offset="20%" stop-color="#eaf3fe" stop-opacity="1"></stop><stop offset="80%" stop-color="#d5e6fd" stop-opacity="1"></stop></linearGradient></defs><defs><linearGradient id="grad2_3" x1="0%" y1="0%" x2="66.7%" y2="100%"><stop offset="20%" stop-color="#bfdafc" stop-opacity="1"></stop><stop offset="80%" stop-color="#d5e6fd" stop-opacity="1"></stop></linearGradient></defs><defs><linearGradient id="grad2_4" x1="0%" y1="0%" x2="66.7%" y2="100%"><stop offset="20%" stop-color="#bfdafc" stop-opacity="1"></stop><stop offset="80%" stop-color="#a8cffb" stop-opacity="1"></stop></linearGradient></defs><defs><linearGradient id="grad2_5" x1="0%" y1="0%" x2="66.7%" y2="100%"><stop offset="20%" stop-color="#8fc3fa" stop-opacity="1"></stop><stop offset="80%" stop-color="#a8cffb" stop-opacity="1"></stop></linearGradient></defs><defs><linearGradient id="grad2_6" x1="0%" y1="0%" x2="66.7%" y2="100%"><stop offset="20%" stop-color="#8fc3fa" stop-opacity="1"></stop><stop offset="80%" stop-color="#73b7f8" stop-opacity="1"></stop></linearGradient></defs><defs><linearGradient id="grad2_7" x1="0%" y1="0%" x2="66.7%" y2="100%"><stop offset="20%" stop-color="#4facf7" stop-opacity="1"></stop><stop offset="80%" stop-color="#73b7f8" stop-opacity="1"></stop></linearGradient></defs><g transform="translate(900, 0)"><path d="M0 513.8C-93.8 502.6 -187.6 491.5 -256.9 445C-326.2 398.4 -370.9 316.6 -409.6 236.5C-448.4 156.4 -481.1 78.2 -513.8 0L0 0Z" fill="#62b2f8"></path><path d="M0 449.6C-82.1 439.8 -164.2 430 -224.8 389.3C-285.4 348.6 -324.5 277 -358.4 206.9C-392.3 136.9 -420.9 68.4 -449.6 0L0 0Z" fill="#81bdf9"></path><path d="M0 385.3C-70.4 377 -140.7 368.6 -192.7 333.7C-244.6 298.8 -278.2 237.4 -307.2 177.4C-336.3 117.3 -360.8 58.7 -385.3 0L0 0Z" fill="#9cc9fa"></path><path d="M0 321.1C-58.6 314.1 -117.3 307.2 -160.6 278.1C-203.9 249 -231.8 197.8 -256 147.8C-280.2 97.8 -300.7 48.9 -321.1 0L0 0Z" fill="#b4d4fc"></path><path d="M0 256.9C-46.9 251.3 -93.8 245.7 -128.4 222.5C-163.1 199.2 -185.5 158.3 -204.8 118.3C-224.2 78.2 -240.5 39.1 -256.9 0L0 0Z" fill="#cae0fd"></path><path d="M0 192.7C-35.2 188.5 -70.4 184.3 -96.3 166.9C-122.3 149.4 -139.1 118.7 -153.6 88.7C-168.1 58.7 -180.4 29.3 -192.7 0L0 0Z" fill="#e0edfe"></path><path d="M0 128.4C-23.5 125.7 -46.9 122.9 -64.2 111.2C-81.5 99.6 -92.7 79.1 -102.4 59.1C-112.1 39.1 -120.3 19.6 -128.4 0L0 0Z" fill="#f5f9ff"></path><path d="M0 64.2C-11.7 62.8 -23.5 61.4 -32.1 55.6C-40.8 49.8 -46.4 39.6 -51.2 29.6C-56 19.6 -60.1 9.8 -64.2 0L0 0Z" fill="#ffffff"></path></g><g transform="translate(0, 600)"><path d="M0 -513.8C78.8 -482 157.5 -450.2 237.5 -411.4C317.5 -372.5 398.7 -326.6 445 -256.9C491.2 -187.2 502.5 -93.6 513.8 0L0 0Z" fill="#62b2f8"></path><path d="M0 -449.6C68.9 -421.7 137.8 -393.9 207.8 -359.9C277.8 -326 348.9 -285.8 389.3 -224.8C429.8 -163.8 439.7 -81.9 449.6 0L0 0Z" fill="#81bdf9"></path><path d="M0 -385.3C59.1 -361.5 118.1 -337.7 178.1 -308.5C238.1 -279.4 299 -245 333.7 -192.7C368.4 -140.4 376.9 -70.2 385.3 0L0 0Z" fill="#9cc9fa"></path><path d="M0 -321.1C49.2 -301.2 98.4 -281.4 148.4 -257.1C198.4 -232.8 249.2 -204.1 278.1 -160.6C307 -117 314.1 -58.5 321.1 0L0 0Z" fill="#b4d4fc"></path><path d="M0 -256.9C39.4 -241 78.8 -225.1 118.7 -205.7C158.7 -186.3 199.4 -163.3 222.5 -128.4C245.6 -93.6 251.3 -46.8 256.9 0L0 0Z" fill="#cae0fd"></path><path d="M0 -192.7C29.5 -180.7 59.1 -168.8 89.1 -154.3C119.1 -139.7 149.5 -122.5 166.9 -96.3C184.2 -70.2 188.4 -35.1 192.7 0L0 0Z" fill="#e0edfe"></path><path d="M0 -128.4C19.7 -120.5 39.4 -112.6 59.4 -102.8C79.4 -93.1 99.7 -81.7 111.2 -64.2C122.8 -46.8 125.6 -23.4 128.4 0L0 0Z" fill="#f5f9ff"></path><path d="M0 -64.2C9.8 -60.2 19.7 -56.3 29.7 -51.4C39.7 -46.6 49.8 -40.8 55.6 -32.1C61.4 -23.4 62.8 -11.7 64.2 0L0 0Z" fill="#ffffff"></path></g></svg>